<svg width="630" height="791" viewBox="0 0 630 791" fill="none" xmlns="http://www.w3.org/2000/svg">
<path d="M377.824 573.429C365.796 573.429 355.027 570.482 345.516 564.587C336.005 558.553 328.523 549.852 323.068 538.484C317.613 527.117 314.886 513.363 314.886 497.224C314.886 481.085 317.613 467.332 323.068 455.964C328.523 444.597 336.005 435.966 345.516 430.072C355.027 424.037 365.796 421.02 377.824 421.02C389.993 421.02 400.762 424.037 410.133 430.072C419.644 435.966 427.126 444.597 432.581 455.964C438.036 467.332 440.763 481.085 440.763 497.224C440.763 513.363 438.036 527.117 432.581 538.484C427.126 549.852 419.644 558.553 410.133 564.587C400.762 570.482 389.993 573.429 377.824 573.429ZM377.824 544.589C383.559 544.589 388.524 542.975 392.72 539.747C397.056 536.519 400.412 531.397 402.79 524.38C405.308 517.363 406.566 508.311 406.566 497.224C406.566 486.137 405.308 477.085 402.79 470.068C400.412 463.051 397.056 457.929 392.72 454.701C388.524 451.473 383.559 449.86 377.824 449.86C372.23 449.86 367.265 451.473 362.929 454.701C358.733 457.929 355.376 463.051 352.859 470.068C350.481 477.085 349.292 486.137 349.292 497.224C349.292 508.311 350.481 517.363 352.859 524.38C355.376 531.397 358.733 536.519 362.929 539.747C367.265 542.975 372.23 544.589 377.824 544.589Z" fill="#57B2DA"/>
<path d="M246.972 573.429C233.545 573.429 221.866 570.622 211.936 565.008C202.146 559.395 194.593 551.185 189.278 540.379C183.963 529.573 181.306 516.24 181.306 500.382C181.306 483.401 184.453 469.016 190.747 457.227C197.18 445.439 205.992 436.457 217.181 430.282C228.51 424.107 241.517 421.02 256.203 421.02C264.035 421.02 271.518 421.862 278.651 423.546C285.784 425.23 291.938 427.756 297.113 431.124L284.525 456.175C280.469 453.368 276.133 451.473 271.518 450.491C266.902 449.368 262.077 448.807 257.042 448.807C244.314 448.807 234.244 452.666 226.831 460.385C219.419 468.104 215.712 479.541 215.712 494.698C215.712 497.224 215.712 500.031 215.712 503.119C215.852 506.206 216.272 509.293 216.971 512.381L207.53 503.54C210.188 498.066 213.614 493.505 217.81 489.856C222.006 486.067 226.971 483.26 232.706 481.436C238.58 479.471 245.014 478.489 252.007 478.489C261.517 478.489 270.049 480.383 277.602 484.173C285.154 487.962 291.168 493.295 295.644 500.171C300.259 507.048 302.567 515.118 302.567 524.38C302.567 534.344 300.05 543.045 295.015 550.483C290.119 557.781 283.476 563.465 275.084 567.534C266.832 571.464 257.461 573.429 246.972 573.429ZM245.083 547.957C249.839 547.957 254.035 547.115 257.671 545.431C261.447 543.607 264.385 541.01 266.483 537.642C268.58 534.274 269.629 530.415 269.629 526.064C269.629 519.328 267.322 513.995 262.706 510.065C258.231 505.995 252.217 503.961 244.664 503.961C239.629 503.961 235.223 504.943 231.447 506.908C227.671 508.732 224.663 511.328 222.426 514.697C220.328 517.924 219.279 521.714 219.279 526.064C219.279 530.274 220.328 534.063 222.426 537.432C224.524 540.659 227.461 543.256 231.237 545.22C235.013 547.045 239.629 547.957 245.083 547.957Z" fill="#57B2DA"/>
<path d="M516.291 360.393V213.036H627.273V240.402H550.068V333.027H630V360.393H516.291ZM547.551 298.924V272.4H618.252V298.924H547.551Z" fill="#57B2DA"/>
<path d="M389.677 360.393V213.036H423.664V332.606H497.302V360.393H389.677Z" fill="#57B2DA"/>
<path d="M229.258 360.393V213.036H301.008C319.47 213.036 333.316 216.545 342.547 223.562C351.918 230.579 356.603 239.841 356.603 251.349C356.603 259.068 354.715 265.804 350.939 271.558C347.163 277.171 341.988 281.522 335.414 284.61C328.84 287.697 321.288 289.241 312.756 289.241L316.742 280.61C325.973 280.61 334.155 282.154 341.288 285.241C348.421 288.188 353.946 292.609 357.862 298.503C361.918 304.397 363.946 311.625 363.946 320.186C363.946 332.816 358.981 342.71 349.051 349.868C339.12 356.885 324.505 360.393 305.204 360.393H229.258ZM263.035 334.711H302.686C311.497 334.711 318.141 333.307 322.617 330.501C327.232 327.553 329.54 322.922 329.54 316.607C329.54 310.432 327.232 305.871 322.617 302.924C318.141 299.836 311.497 298.293 302.686 298.293H260.517V273.453H296.812C305.064 273.453 311.358 272.049 315.693 269.242C320.169 266.295 322.407 261.874 322.407 255.98C322.407 250.226 320.169 245.946 315.693 243.139C311.358 240.192 305.064 238.718 296.812 238.718H263.035V334.711Z" fill="#57B2DA"/>
<path d="M160.419 360.393V213.036H194.406V360.393H160.419Z" fill="#57B2DA"/>
<path d="M0 360.393V213.036H71.7498C90.2117 213.036 104.058 216.545 113.289 223.562C122.66 230.579 127.345 239.841 127.345 251.349C127.345 259.068 125.457 265.804 121.681 271.558C117.905 277.171 112.73 281.522 106.156 284.61C99.5825 287.697 92.0299 289.241 83.4982 289.241L87.4843 280.61C96.7153 280.61 104.897 282.154 112.03 285.241C119.163 288.188 124.688 292.609 128.604 298.503C132.66 304.397 134.688 311.625 134.688 320.186C134.688 332.816 129.723 342.71 119.793 349.868C109.862 356.885 95.2467 360.393 75.9456 360.393H0ZM33.7769 334.711H73.4281C82.2395 334.711 88.883 333.307 93.3586 330.501C97.9741 327.553 100.282 322.922 100.282 316.607C100.282 310.432 97.9741 305.871 93.3586 302.924C88.883 299.836 82.2395 298.293 73.4281 298.293H31.2594V273.453H67.5539C75.8058 273.453 82.0996 272.049 86.4354 269.242C90.911 266.295 93.1488 261.874 93.1488 255.98C93.1488 250.226 90.911 245.946 86.4354 243.139C82.0996 240.192 75.8058 238.718 67.5539 238.718H33.7769V334.711Z" fill="#57B2DA"/>
<path d="M306.037 118.938V95.9927L375.269 2.52634H410.934L343.171 95.9927L326.597 91.151H442.194V118.938H306.037ZM385.129 149.883V118.938L386.178 91.151V63.5742H418.277V149.883H385.129Z" fill="#57B2DA"/>
<path d="M184.964 149.883V127.779L241.609 74.0995C246.084 70.0296 249.371 66.3808 251.469 63.153C253.567 59.9251 254.966 56.978 255.665 54.3115C256.504 51.6451 256.924 49.1891 256.924 46.9437C256.924 41.0494 254.896 36.5585 250.84 33.4711C246.924 30.2432 241.119 28.6293 233.427 28.6293C227.273 28.6293 221.539 29.8222 216.224 32.208C211.049 34.5938 206.643 38.3128 203.007 43.365L178.251 27.3663C183.845 18.9459 191.678 12.2797 201.748 7.36784C211.818 2.45595 223.427 0 236.574 0C247.483 0 256.994 1.82442 265.106 5.47325C273.358 8.98175 279.722 13.9638 284.197 20.4195C288.813 26.8751 291.12 34.5938 291.12 43.5755C291.12 48.3471 290.491 53.1186 289.232 57.8902C288.113 62.5214 285.736 67.4333 282.099 72.6259C278.603 77.8185 273.428 83.6426 266.574 90.0982L219.58 134.516L213.077 122.096H295.946V149.883H184.964Z" fill="#57B2DA"/>
<path d="M203.637 624.06C243.237 624.06 278.763 642.518 303 671.755V790.745C281.254 774.1 254.552 764.284 225.682 764.284H144.853L130.156 624.06H203.637ZM482.864 764.284H402.035C374.167 764.284 348.32 773.431 327 789.036V669.071C351.157 641.393 385.705 624.06 424.08 624.06H497.561L482.864 764.284Z" fill="#57B2DA"/>
</svg>
