<svg width="1024" height="1024" viewBox="0 0 1024 1024" fill="none" xmlns="http://www.w3.org/2000/svg">
<g clip-path="url(#clip0_88_2)">
<rect width="1024" height="1024" fill="#57B2DA"/>
<path d="M574.825 685.429C562.796 685.429 552.027 682.482 542.516 676.587C533.005 670.553 525.523 661.852 520.068 650.484C514.613 639.117 511.886 625.363 511.886 609.224C511.886 593.085 514.613 579.332 520.068 567.964C525.523 556.597 533.005 547.966 542.516 542.072C552.027 536.037 562.796 533.02 574.825 533.02C586.993 533.02 597.762 536.037 607.133 542.072C616.644 547.966 624.126 556.597 629.581 567.964C635.036 579.332 637.763 593.085 637.763 609.224C637.763 625.363 635.036 639.117 629.581 650.484C624.126 661.852 616.644 670.553 607.133 676.587C597.762 682.482 586.993 685.429 574.825 685.429ZM574.825 656.589C580.559 656.589 585.524 654.975 589.72 651.747C594.056 648.519 597.412 643.397 599.79 636.38C602.308 629.363 603.566 620.311 603.566 609.224C603.566 598.137 602.308 589.085 599.79 582.068C597.412 575.051 594.056 569.929 589.72 566.701C585.524 563.473 580.559 561.86 574.825 561.86C569.23 561.86 564.265 563.473 559.929 566.701C555.733 569.929 552.376 575.051 549.859 582.068C547.481 589.085 546.292 598.137 546.292 609.224C546.292 620.311 547.481 629.363 549.859 636.38C552.376 643.397 555.733 648.519 559.929 651.747C564.265 654.975 569.23 656.589 574.825 656.589Z" fill="#F6F6F6"/>
<path d="M443.972 685.429C430.545 685.429 418.866 682.622 408.936 677.008C399.146 671.395 391.593 663.185 386.278 652.379C380.963 641.573 378.306 628.24 378.306 612.382C378.306 595.401 381.453 581.016 387.747 569.227C394.18 557.439 402.992 548.457 414.181 542.282C425.51 536.107 438.517 533.02 453.203 533.02C461.035 533.02 468.518 533.862 475.651 535.546C482.784 537.23 488.938 539.756 494.113 543.124L481.525 568.175C477.469 565.368 473.133 563.473 468.518 562.491C463.902 561.368 459.077 560.807 454.042 560.807C441.314 560.807 431.244 564.666 423.831 572.385C416.419 580.104 412.712 591.541 412.712 606.698C412.712 609.224 412.712 612.031 412.712 615.119C412.852 618.206 413.272 621.293 413.971 624.381L404.53 615.54C407.188 610.066 410.614 605.505 414.81 601.856C419.006 598.067 423.971 595.26 429.706 593.436C435.58 591.471 442.014 590.489 449.007 590.489C458.517 590.489 467.049 592.383 474.602 596.173C482.154 599.962 488.168 605.295 492.644 612.171C497.26 619.048 499.567 627.118 499.567 636.38C499.567 646.344 497.05 655.045 492.015 662.483C487.119 669.781 480.476 675.465 472.084 679.534C463.832 683.464 454.461 685.429 443.972 685.429ZM442.083 659.957C446.839 659.957 451.035 659.115 454.671 657.431C458.447 655.607 461.385 653.01 463.483 649.642C465.58 646.274 466.629 642.415 466.629 638.064C466.629 631.328 464.322 625.995 459.706 622.065C455.231 617.995 449.217 615.961 441.664 615.961C436.629 615.961 432.223 616.943 428.447 618.908C424.671 620.732 421.663 623.328 419.426 626.697C417.328 629.924 416.279 633.714 416.279 638.064C416.279 642.274 417.328 646.063 419.426 649.432C421.524 652.659 424.461 655.256 428.237 657.22C432.013 659.045 436.629 659.957 442.083 659.957Z" fill="#F6F6F6"/>
<path d="M713.291 472.393V325.036H824.273V352.402H747.068V445.027H827V472.393H713.291ZM744.551 410.924V384.4H815.252V410.924H744.551Z" fill="#F6F6F6"/>
<path d="M586.677 472.393V325.036H620.664V444.606H694.302V472.393H586.677Z" fill="#F6F6F6"/>
<path d="M426.258 472.393V325.036H498.008C516.47 325.036 530.316 328.545 539.547 335.562C548.918 342.579 553.603 351.841 553.603 363.349C553.603 371.068 551.715 377.804 547.939 383.558C544.163 389.171 538.988 393.522 532.414 396.61C525.84 399.697 518.288 401.241 509.756 401.241L513.742 392.61C522.973 392.61 531.155 394.154 538.288 397.241C545.421 400.188 550.946 404.609 554.862 410.503C558.918 416.397 560.946 423.625 560.946 432.186C560.946 444.816 555.981 454.71 546.051 461.868C536.12 468.885 521.505 472.393 502.204 472.393H426.258ZM460.035 446.711H499.686C508.497 446.711 515.141 445.307 519.617 442.501C524.232 439.554 526.54 434.922 526.54 428.607C526.54 422.432 524.232 417.871 519.617 414.924C515.141 411.836 508.497 410.293 499.686 410.293H457.517V385.453H493.812C502.064 385.453 508.358 384.049 512.693 381.242C517.169 378.295 519.407 373.874 519.407 367.98C519.407 362.226 517.169 357.946 512.693 355.139C508.358 352.192 502.064 350.718 493.812 350.718H460.035V446.711Z" fill="#F6F6F6"/>
<path d="M357.419 472.393V325.036H391.406V472.393H357.419Z" fill="#F6F6F6"/>
<path d="M197 472.393V325.036H268.75C287.212 325.036 301.058 328.545 310.289 335.562C319.66 342.579 324.345 351.841 324.345 363.349C324.345 371.068 322.457 377.804 318.681 383.558C314.905 389.171 309.73 393.522 303.156 396.61C296.583 399.697 289.03 401.241 280.498 401.241L284.484 392.61C293.715 392.61 301.897 394.154 309.03 397.241C316.163 400.188 321.688 404.609 325.604 410.503C329.66 416.397 331.688 423.625 331.688 432.186C331.688 444.816 326.723 454.71 316.793 461.868C306.862 468.885 292.247 472.393 272.946 472.393H197ZM230.777 446.711H270.428C279.239 446.711 285.883 445.307 290.359 442.501C294.974 439.554 297.282 434.922 297.282 428.607C297.282 422.432 294.974 417.871 290.359 414.924C285.883 411.836 279.239 410.293 270.428 410.293H228.259V385.453H264.554C272.806 385.453 279.1 384.049 283.435 381.242C287.911 378.295 290.149 373.874 290.149 367.98C290.149 362.226 287.911 357.946 283.435 355.139C279.1 352.192 272.806 350.718 264.554 350.718H230.777V446.711Z" fill="#F6F6F6"/>
<path d="M503.037 230.938V207.993L572.269 114.526H607.934L540.171 207.993L523.597 203.151H639.194V230.938H503.037ZM582.129 261.883V230.938L583.178 203.151V175.574H615.277V261.883H582.129Z" fill="#F6F6F6"/>
<path d="M381.964 261.883V239.779L438.609 186.099C443.084 182.03 446.371 178.381 448.469 175.153C450.567 171.925 451.966 168.978 452.665 166.312C453.504 163.645 453.924 161.189 453.924 158.944C453.924 153.049 451.896 148.559 447.84 145.471C443.924 142.243 438.119 140.629 430.427 140.629C424.273 140.629 418.539 141.822 413.224 144.208C408.049 146.594 403.643 150.313 400.007 155.365L375.251 139.366C380.845 130.946 388.678 124.28 398.748 119.368C408.818 114.456 420.427 112 433.574 112C444.483 112 453.994 113.824 462.106 117.473C470.358 120.982 476.722 125.964 481.197 132.419C485.813 138.875 488.12 146.594 488.12 155.576C488.12 160.347 487.491 165.119 486.232 169.89C485.113 174.521 482.736 179.433 479.099 184.626C475.603 189.818 470.428 195.643 463.574 202.098L416.58 246.516L410.077 234.096H492.946V261.883H381.964Z" fill="#F6F6F6"/>
<path d="M400.637 736.06C440.237 736.06 475.763 754.518 500 783.755V902.745C478.254 886.1 451.552 876.284 422.682 876.284H341.853L327.156 736.06H400.637ZM679.864 876.284H599.035C571.167 876.284 545.32 885.431 524 901.036V781.071C548.157 753.393 582.705 736.06 621.08 736.06H694.561L679.864 876.284Z" fill="#F6F6F6"/>
</g>
<defs>
<clipPath id="clip0_88_2">
<rect width="1024" height="1024" rx="240" fill="white"/>
</clipPath>
</defs>
</svg>
